<svg width="250" height="250" viewBox="0 0 250 250" fill="none" xmlns="http://www.w3.org/2000/svg">
<g clip-path="url(#clip0_507_35)">
<rect width="250" height="250" rx="34" fill="black"/>
<path opacity="0.4" d="M52.6424 70.4933C55.2845 72.5709 58.6286 73.5444 61.973 73.2095L324.25 46.9509C337.934 45.5809 344.097 63.6231 332.434 70.9109L100.12 216.077C94.0316 219.881 86.0114 218.03 82.2067 211.941L-23.5716 42.6604C-31.2911 30.3065 -15.9627 16.5479 -4.51144 25.5523L52.6424 70.4933Z" fill="url(#paint0_linear_507_35)"/>
<path d="M152.329 23.7136C154.643 22.214 157.734 22.8711 159.238 25.1823L225.267 126.636C226.776 128.953 226.116 132.055 223.796 133.559L97.6711 215.286C95.357 216.786 92.2657 216.129 90.7615 213.818L24.7328 112.364C23.2244 110.047 23.8838 106.945 26.2045 105.441L152.329 23.7136Z" fill="url(#paint1_linear_507_35)"/>
<path d="M149.351 31.7232C151.667 30.2192 154.764 30.8774 156.268 33.1934L215.943 125.085C217.447 127.401 216.789 130.498 214.473 132.001L100.315 206.137C97.9989 207.641 94.9023 206.982 93.3983 204.666L33.7232 112.775C32.2192 110.459 32.8774 107.362 35.1934 105.858L149.351 31.7232Z" fill="url(#paint2_linear_507_35)"/>
<path d="M132.246 48.5338C134.562 47.0299 137.659 47.6881 139.163 50.004L193.628 133.873C195.132 136.189 194.474 139.286 192.158 140.79L176.55 150.926C174.234 152.43 171.137 151.772 169.633 149.456L115.168 65.5864C113.664 63.2705 114.322 60.1738 116.638 58.6698L132.246 48.5338Z" fill="black"/>
<path d="M122.507 146.103C124.822 144.599 127.919 145.257 129.423 147.573L142.211 167.265C143.715 169.581 143.056 172.677 140.741 174.181L131.131 180.422C128.815 181.926 125.719 181.267 124.215 178.951L111.427 159.26C109.923 156.944 110.581 153.848 112.897 152.344L122.507 146.103Z" fill="black"/>
<path d="M101.668 114.014C103.984 112.51 107.081 113.168 108.585 115.484L121.372 135.175C122.876 137.491 122.218 140.588 119.902 142.092L110.293 148.332C107.977 149.836 104.88 149.178 103.376 146.862L90.5885 127.171C89.0845 124.855 89.7428 121.758 92.0587 120.255L101.668 114.014Z" fill="black"/>
<path d="M80.8286 81.925C83.1445 80.421 86.2412 81.0793 87.7452 83.3952L100.533 103.086C102.037 105.402 101.379 108.499 99.0626 110.003L89.4533 116.243C87.1373 117.747 84.0407 117.089 82.5367 114.773L69.7491 95.082C68.2451 92.7661 68.9033 89.6694 71.2192 88.1654L80.8286 81.925Z" fill="black"/>
<path d="M100.225 160.572C102.541 159.068 105.638 159.726 107.142 162.042L119.93 181.734C121.434 184.049 120.775 187.146 118.459 188.65L108.85 194.89C106.534 196.394 103.438 195.736 101.934 193.42L89.1459 173.729C87.6419 171.413 88.3002 168.317 90.6161 166.813L100.225 160.572Z" fill="black"/>
<path d="M79.387 128.483C81.7029 126.979 84.7995 127.637 86.3035 129.953L99.0912 149.644C100.595 151.96 99.9369 155.057 97.621 156.561L88.0116 162.801C85.6957 164.305 82.5991 163.647 81.0951 161.331L68.3074 141.64C66.8035 139.324 67.4617 136.227 69.7776 134.723L79.387 128.483Z" fill="black"/>
<path d="M58.5475 96.3939C60.8635 94.89 63.9601 95.5482 65.4641 97.8641L78.2517 117.555C79.7557 119.871 79.0975 122.968 76.7816 124.472L67.1722 130.712C64.8562 132.216 61.7596 131.558 60.2556 129.242L47.468 109.551C45.964 107.235 46.6222 104.138 48.9382 102.634L58.5475 96.3939Z" fill="black"/>
<path d="M144.788 131.633C147.104 130.129 150.2 130.788 151.704 133.104L164.492 152.795C165.996 155.111 165.338 158.207 163.022 159.711L153.412 165.952C151.096 167.456 148 166.797 146.496 164.482L133.708 144.79C132.204 142.474 132.862 139.378 135.178 137.874L144.788 131.633Z" fill="black"/>
<path d="M123.948 99.5443C126.264 98.0403 129.361 98.6985 130.865 101.014L143.652 120.706C145.156 123.022 144.498 126.118 142.182 127.622L132.573 133.863C130.257 135.367 127.16 134.708 125.656 132.392L112.869 112.701C111.365 110.385 112.023 107.289 114.339 105.785L123.948 99.5443Z" fill="black"/>
<path d="M103.11 67.4552C105.426 65.9512 108.522 66.6094 110.026 68.9253L122.814 88.6165C124.318 90.9325 123.66 94.0291 121.344 95.5331L111.734 101.773C109.418 103.277 106.322 102.619 104.818 100.303L92.0302 80.6121C90.5262 78.2962 91.1844 75.1995 93.5003 73.6956L103.11 67.4552Z" fill="black"/>
</g>
<defs>
<linearGradient id="paint0_linear_507_35" x1="303.607" y1="-80.2981" x2="13.0479" y2="101.264" gradientUnits="userSpaceOnUse">
<stop stop-color="#5E00FF" stop-opacity="0.72"/>
<stop offset="1" stop-color="#F2C4FF"/>
</linearGradient>
<linearGradient id="paint1_linear_507_35" x1="125" y1="21" x2="125" y2="218" gradientUnits="userSpaceOnUse">
<stop/>
<stop offset="0.769636" stop-color="#565656"/>
</linearGradient>
<linearGradient id="paint2_linear_507_35" x1="124.833" y1="29" x2="124.833" y2="208.86" gradientUnits="userSpaceOnUse">
<stop stop-color="white"/>
<stop offset="1" stop-color="#999999"/>
</linearGradient>
<clipPath id="clip0_507_35">
<rect width="250" height="250" rx="34" fill="white"/>
</clipPath>
</defs>
</svg>
