<svg width="2962" height="1908" viewBox="0 0 2962 1908" fill="none" xmlns="http://www.w3.org/2000/svg">
    <path d="M0 1908V3H260V1027H448.5V3H912V1908H448.5V1128.5H260V1908H0Z" fill="white"/>
    <path d="M964.75 833.078V3.8147e-06L1260.83 0L1274.34 755.829L1418.42 1080.98L1557 755.829V0L1860.75 3.8147e-06V833.078L1633.62 1062.3V1908H1191.88V1062.3L964.75 833.078Z" fill="white"/>
    <path d="M2660.36 249L2565.35 456.375L2358.73 550.636L2565.35 645.652L2660.36 852.273L2754.62 645.652L2962 550.636L2754.62 456.375M1906.27 475.227L1717.75 889.977L1303 1078.5L1717.75 1267.02L1906.27 1681.77L2094.8 1267.02L2509.55 1078.5L2094.8 889.977M2660.36 1304.73L2565.35 1511.35L2358.73 1606.36L2565.35 1700.62L2660.36 1908L2754.62 1700.62L2962 1606.36L2754.62 1511.35" fill="#79D0FF"/>
    </svg>
    