<svg width="1606" height="1705" viewBox="0 0 1606 1705" fill="none" xmlns="http://www.w3.org/2000/svg">
<g filter="url(#filter0_bdi_354_23)">
<path d="M63.3059 1061.57L392.001 625.72C433.465 570.739 511.696 559.764 566.736 601.208C597.991 624.742 616.39 661.56 616.433 700.658L617.031 1244.92C617.091 1299.17 563.661 1337.32 512.303 1319.7C480.628 1308.84 459.234 1279.21 458.899 1245.75L454.797 835.893C454.447 800.913 409.913 786.263 388.847 814.198C383.174 821.719 380.62 831.136 381.714 840.492L392.881 935.946C399.191 989.892 384.464 1044.19 351.756 1087.56L259.783 1209.52C202.868 1284.99 85.5301 1270.68 48.4136 1183.73C31.1426 1143.28 36.8219 1096.69 63.3059 1061.57Z" fill="black"/>
<path d="M63.3059 1061.57L392.001 625.72C433.465 570.739 511.696 559.764 566.736 601.208C597.991 624.742 616.39 661.56 616.433 700.658L617.031 1244.92C617.091 1299.17 563.661 1337.32 512.303 1319.7C480.628 1308.84 459.234 1279.21 458.899 1245.75L454.797 835.893C454.447 800.913 409.913 786.263 388.847 814.198C383.174 821.719 380.62 831.136 381.714 840.492L392.881 935.946C399.191 989.892 384.464 1044.19 351.756 1087.56L259.783 1209.52C202.868 1284.99 85.5301 1270.68 48.4136 1183.73C31.1426 1143.28 36.8219 1096.69 63.3059 1061.57Z" stroke="#00FF7B" stroke-width="11"/>
</g>
<g filter="url(#filter1_dif_354_23)">
<path d="M63.3059 1061.57L392.001 625.72C433.465 570.739 511.696 559.764 566.736 601.208C597.991 624.742 616.39 661.56 616.433 700.658L617.031 1244.92C617.091 1299.17 563.661 1337.32 512.303 1319.7C480.628 1308.84 459.234 1279.21 458.899 1245.75L454.797 835.893C454.447 800.913 409.913 786.263 388.847 814.198C383.174 821.719 380.62 831.136 381.714 840.492L392.881 935.946C399.191 989.892 384.464 1044.19 351.756 1087.56L259.783 1209.52C202.868 1284.99 85.5301 1270.68 48.4136 1183.73C31.1426 1143.28 36.8219 1096.69 63.3059 1061.57Z" fill="black"/>
<path d="M63.3059 1061.57L392.001 625.72C433.465 570.739 511.696 559.764 566.736 601.208C597.991 624.742 616.39 661.56 616.433 700.658L617.031 1244.92C617.091 1299.17 563.661 1337.32 512.303 1319.7C480.628 1308.84 459.234 1279.21 458.899 1245.75L454.797 835.893C454.447 800.913 409.913 786.263 388.847 814.198C383.174 821.719 380.62 831.136 381.714 840.492L392.881 935.946C399.191 989.892 384.464 1044.19 351.756 1087.56L259.783 1209.52C202.868 1284.99 85.5301 1270.68 48.4136 1183.73C31.1426 1143.28 36.8219 1096.69 63.3059 1061.57Z" stroke="#00FF7B" stroke-width="11"/>
</g>
<g filter="url(#filter2_bdi_354_23)">
<path d="M970.575 115.907L1226.68 598.005C1258.99 658.82 1235.87 734.36 1175.05 766.729C1140.51 785.109 1099.37 786.224 1063.91 769.74L570.393 540.267C521.2 517.393 509.203 452.846 546.877 413.747C570.113 389.631 606.003 382.762 636.468 396.598L1009.66 566.095C1041.51 580.561 1073.61 546.391 1057.2 515.492C1052.78 507.172 1045.32 500.878 1036.38 497.916L945.149 467.695C893.59 450.616 850.606 414.322 825.121 366.35L753.46 231.453C709.113 147.974 771.673 47.6789 866.154 50.7826C910.118 52.2269 949.94 77.0623 970.575 115.907Z" fill="black"/>
<path d="M970.575 115.907L1226.68 598.005C1258.99 658.82 1235.87 734.36 1175.05 766.729C1140.51 785.109 1099.37 786.224 1063.91 769.74L570.393 540.267C521.2 517.393 509.203 452.846 546.877 413.747C570.113 389.631 606.003 382.762 636.468 396.598L1009.66 566.095C1041.51 580.561 1073.61 546.391 1057.2 515.492C1052.78 507.172 1045.32 500.878 1036.38 497.916L945.149 467.695C893.59 450.616 850.606 414.322 825.121 366.35L753.46 231.453C709.113 147.974 771.673 47.6789 866.154 50.7826C910.118 52.2269 949.94 77.0623 970.575 115.907Z" stroke="#FF0000" stroke-width="11"/>
</g>
<g filter="url(#filter3_dif_354_23)">
<path d="M970.575 115.907L1226.68 598.005C1258.99 658.82 1235.87 734.36 1175.05 766.729C1140.51 785.109 1099.37 786.224 1063.91 769.74L570.393 540.267C521.2 517.393 509.203 452.846 546.877 413.747C570.113 389.631 606.003 382.762 636.468 396.598L1009.66 566.095C1041.51 580.561 1073.61 546.391 1057.2 515.492C1052.78 507.172 1045.32 500.878 1036.38 497.916L945.149 467.695C893.59 450.616 850.606 414.322 825.121 366.35L753.46 231.453C709.113 147.974 771.673 47.6789 866.154 50.7826C910.118 52.2269 949.94 77.0623 970.575 115.907Z" fill="black"/>
<path d="M970.575 115.907L1226.68 598.005C1258.99 658.82 1235.87 734.36 1175.05 766.729C1140.51 785.109 1099.37 786.224 1063.91 769.74L570.393 540.267C521.2 517.393 509.203 452.846 546.877 413.747C570.113 389.631 606.003 382.762 636.468 396.598L1009.66 566.095C1041.51 580.561 1073.61 546.391 1057.2 515.492C1052.78 507.172 1045.32 500.878 1036.38 497.916L945.149 467.695C893.59 450.616 850.606 414.322 825.121 366.35L753.46 231.453C709.113 147.974 771.673 47.6789 866.154 50.7826C910.118 52.2269 949.94 77.0623 970.575 115.907Z" stroke="#FF0000" stroke-width="11"/>
</g>
<g filter="url(#filter4_bdi_354_23)">
<path d="M1312.68 1372.75L773.529 1287.15C705.518 1276.35 659.1 1212.43 669.853 1144.37C675.959 1105.73 699.83 1072.2 734.331 1053.8L1214.61 797.76C1262.48 772.239 1321.25 801.503 1329.8 855.122C1335.08 888.191 1318.96 920.989 1289.58 936.992L929.62 1133.03C898.899 1149.76 906.871 1195.96 941.426 1201.45C950.731 1202.92 960.244 1200.76 967.991 1195.4L1047.03 1140.73C1091.7 1109.83 1146.55 1097.34 1200.2 1105.86L1351.06 1129.81C1444.42 1144.63 1486.87 1254.96 1427.53 1328.54C1399.92 1362.79 1356.12 1379.64 1312.68 1372.75Z" fill="black"/>
<path d="M1312.68 1372.75L773.529 1287.15C705.518 1276.35 659.1 1212.43 669.853 1144.37C675.959 1105.73 699.83 1072.2 734.331 1053.8L1214.61 797.76C1262.48 772.239 1321.25 801.503 1329.8 855.122C1335.08 888.191 1318.96 920.989 1289.58 936.992L929.62 1133.03C898.899 1149.76 906.871 1195.96 941.426 1201.45C950.731 1202.92 960.244 1200.76 967.991 1195.4L1047.03 1140.73C1091.7 1109.83 1146.55 1097.34 1200.2 1105.86L1351.06 1129.81C1444.42 1144.63 1486.87 1254.96 1427.53 1328.54C1399.92 1362.79 1356.12 1379.64 1312.68 1372.75Z" stroke="#0077FF" stroke-width="11"/>
</g>
<g filter="url(#filter5_dif_354_23)">
<path d="M1312.68 1372.75L773.529 1287.15C705.518 1276.35 659.1 1212.43 669.853 1144.37C675.959 1105.73 699.83 1072.2 734.331 1053.8L1214.61 797.76C1262.48 772.239 1321.25 801.503 1329.8 855.122C1335.08 888.191 1318.96 920.989 1289.58 936.992L929.62 1133.03C898.899 1149.76 906.871 1195.96 941.426 1201.45C950.731 1202.92 960.244 1200.76 967.991 1195.4L1047.03 1140.73C1091.7 1109.83 1146.55 1097.34 1200.2 1105.86L1351.06 1129.81C1444.42 1144.63 1486.87 1254.96 1427.53 1328.54C1399.92 1362.79 1356.12 1379.64 1312.68 1372.75Z" fill="black"/>
<path d="M1312.68 1372.75L773.529 1287.15C705.518 1276.35 659.1 1212.43 669.853 1144.37C675.959 1105.73 699.83 1072.2 734.331 1053.8L1214.61 797.76C1262.48 772.239 1321.25 801.503 1329.8 855.122C1335.08 888.191 1318.96 920.989 1289.58 936.992L929.62 1133.03C898.899 1149.76 906.871 1195.96 941.426 1201.45C950.731 1202.92 960.244 1200.76 967.991 1195.4L1047.03 1140.73C1091.7 1109.83 1146.55 1097.34 1200.2 1105.86L1351.06 1129.81C1444.42 1144.63 1486.87 1254.96 1427.53 1328.54C1399.92 1362.79 1356.12 1379.64 1312.68 1372.75Z" stroke="#0077FF" stroke-width="11"/>
</g>
<defs>
<filter id="filter0_bdi_354_23" x="-1727.55" y="-1190.01" width="4110.68" height="4280.17" filterUnits="userSpaceOnUse" color-interpolation-filters="sRGB">
<feFlood flood-opacity="0" result="BackgroundImageFix"/>
<feGaussianBlur in="BackgroundImageFix" stdDeviation="880.3"/>
<feComposite in2="SourceAlpha" operator="in" result="effect1_backgroundBlur_354_23"/>
<feColorMatrix in="SourceAlpha" type="matrix" values="0 0 0 0 0 0 0 0 0 0 0 0 0 0 0 0 0 0 127 0" result="hardAlpha"/>
<feOffset dy="4"/>
<feGaussianBlur stdDeviation="2"/>
<feComposite in2="hardAlpha" operator="out"/>
<feColorMatrix type="matrix" values="0 0 0 0 0 0 0 0 0 0 0 0 0 0 0 0 0 0 0.25 0"/>
<feBlend mode="normal" in2="effect1_backgroundBlur_354_23" result="effect2_dropShadow_354_23"/>
<feBlend mode="normal" in="SourceGraphic" in2="effect2_dropShadow_354_23" result="shape"/>
<feColorMatrix in="SourceAlpha" type="matrix" values="0 0 0 0 0 0 0 0 0 0 0 0 0 0 0 0 0 0 127 0" result="hardAlpha"/>
<feOffset dy="4"/>
<feGaussianBlur stdDeviation="2"/>
<feComposite in2="hardAlpha" operator="arithmetic" k2="-1" k3="1"/>
<feColorMatrix type="matrix" values="0 0 0 0 0 0 0 0 0 0 0 0 0 0 0 0 0 0 0.25 0"/>
<feBlend mode="normal" in2="shape" result="effect3_innerShadow_354_23"/>
</filter>
<filter id="filter1_dif_354_23" x="0.0483398" y="537.586" width="655.483" height="824.967" filterUnits="userSpaceOnUse" color-interpolation-filters="sRGB">
<feFlood flood-opacity="0" result="BackgroundImageFix"/>
<feColorMatrix in="SourceAlpha" type="matrix" values="0 0 0 0 0 0 0 0 0 0 0 0 0 0 0 0 0 0 127 0" result="hardAlpha"/>
<feOffset dy="4"/>
<feGaussianBlur stdDeviation="2"/>
<feComposite in2="hardAlpha" operator="out"/>
<feColorMatrix type="matrix" values="0 0 0 0 0 0 0 0 0 0 0 0 0 0 0 0 0 0 0.25 0"/>
<feBlend mode="normal" in2="BackgroundImageFix" result="effect1_dropShadow_354_23"/>
<feBlend mode="normal" in="SourceGraphic" in2="effect1_dropShadow_354_23" result="shape"/>
<feColorMatrix in="SourceAlpha" type="matrix" values="0 0 0 0 0 0 0 0 0 0 0 0 0 0 0 0 0 0 127 0" result="hardAlpha"/>
<feOffset dy="4"/>
<feGaussianBlur stdDeviation="2"/>
<feComposite in2="hardAlpha" operator="arithmetic" k2="-1" k3="1"/>
<feColorMatrix type="matrix" values="0 0 0 0 0 0 0 0 0 0 0 0 0 0 0 0 0 0 0.25 0"/>
<feBlend mode="normal" in2="shape" result="effect2_innerShadow_354_23"/>
<feGaussianBlur stdDeviation="16.5" result="effect3_foregroundBlur_354_23"/>
</filter>
<filter id="filter2_bdi_354_23" x="-1241.39" y="-1715.39" width="4248.77" height="4262.84" filterUnits="userSpaceOnUse" color-interpolation-filters="sRGB">
<feFlood flood-opacity="0" result="BackgroundImageFix"/>
<feGaussianBlur in="BackgroundImageFix" stdDeviation="880.3"/>
<feComposite in2="SourceAlpha" operator="in" result="effect1_backgroundBlur_354_23"/>
<feColorMatrix in="SourceAlpha" type="matrix" values="0 0 0 0 0 0 0 0 0 0 0 0 0 0 0 0 0 0 127 0" result="hardAlpha"/>
<feOffset dy="4"/>
<feGaussianBlur stdDeviation="2"/>
<feComposite in2="hardAlpha" operator="out"/>
<feColorMatrix type="matrix" values="0 0 0 0 0 0 0 0 0 0 0 0 0 0 0 0 0 0 0.25 0"/>
<feBlend mode="normal" in2="effect1_backgroundBlur_354_23" result="effect2_dropShadow_354_23"/>
<feBlend mode="normal" in="SourceGraphic" in2="effect2_dropShadow_354_23" result="shape"/>
<feColorMatrix in="SourceAlpha" type="matrix" values="0 0 0 0 0 0 0 0 0 0 0 0 0 0 0 0 0 0 127 0" result="hardAlpha"/>
<feOffset dy="4"/>
<feGaussianBlur stdDeviation="2"/>
<feComposite in2="hardAlpha" operator="arithmetic" k2="-1" k3="1"/>
<feColorMatrix type="matrix" values="0 0 0 0 0 0 0 0 0 0 0 0 0 0 0 0 0 0 0.25 0"/>
<feBlend mode="normal" in2="shape" result="effect3_innerShadow_354_23"/>
</filter>
<filter id="filter3_dif_354_23" x="486.211" y="12.2122" width="793.567" height="807.642" filterUnits="userSpaceOnUse" color-interpolation-filters="sRGB">
<feFlood flood-opacity="0" result="BackgroundImageFix"/>
<feColorMatrix in="SourceAlpha" type="matrix" values="0 0 0 0 0 0 0 0 0 0 0 0 0 0 0 0 0 0 127 0" result="hardAlpha"/>
<feOffset dy="4"/>
<feGaussianBlur stdDeviation="2"/>
<feComposite in2="hardAlpha" operator="out"/>
<feColorMatrix type="matrix" values="0 0 0 0 0 0 0 0 0 0 0 0 0 0 0 0 0 0 0.25 0"/>
<feBlend mode="normal" in2="BackgroundImageFix" result="effect1_dropShadow_354_23"/>
<feBlend mode="normal" in="SourceGraphic" in2="effect1_dropShadow_354_23" result="shape"/>
<feColorMatrix in="SourceAlpha" type="matrix" values="0 0 0 0 0 0 0 0 0 0 0 0 0 0 0 0 0 0 127 0" result="hardAlpha"/>
<feOffset dy="4"/>
<feGaussianBlur stdDeviation="2"/>
<feComposite in2="hardAlpha" operator="arithmetic" k2="-1" k3="1"/>
<feColorMatrix type="matrix" values="0 0 0 0 0 0 0 0 0 0 0 0 0 0 0 0 0 0 0.25 0"/>
<feBlend mode="normal" in2="shape" result="effect2_innerShadow_354_23"/>
<feGaussianBlur stdDeviation="16.5" result="effect3_foregroundBlur_354_23"/>
</filter>
<filter id="filter4_bdi_354_23" x="-1097.8" y="-977.689" width="4318.8" height="4118.06" filterUnits="userSpaceOnUse" color-interpolation-filters="sRGB">
<feFlood flood-opacity="0" result="BackgroundImageFix"/>
<feGaussianBlur in="BackgroundImageFix" stdDeviation="880.3"/>
<feComposite in2="SourceAlpha" operator="in" result="effect1_backgroundBlur_354_23"/>
<feColorMatrix in="SourceAlpha" type="matrix" values="0 0 0 0 0 0 0 0 0 0 0 0 0 0 0 0 0 0 127 0" result="hardAlpha"/>
<feOffset dy="4"/>
<feGaussianBlur stdDeviation="2"/>
<feComposite in2="hardAlpha" operator="out"/>
<feColorMatrix type="matrix" values="0 0 0 0 0 0 0 0 0 0 0 0 0 0 0 0 0 0 0.25 0"/>
<feBlend mode="normal" in2="effect1_backgroundBlur_354_23" result="effect2_dropShadow_354_23"/>
<feBlend mode="normal" in="SourceGraphic" in2="effect2_dropShadow_354_23" result="shape"/>
<feColorMatrix in="SourceAlpha" type="matrix" values="0 0 0 0 0 0 0 0 0 0 0 0 0 0 0 0 0 0 127 0" result="hardAlpha"/>
<feOffset dy="4"/>
<feGaussianBlur stdDeviation="2"/>
<feComposite in2="hardAlpha" operator="arithmetic" k2="-1" k3="1"/>
<feColorMatrix type="matrix" values="0 0 0 0 0 0 0 0 0 0 0 0 0 0 0 0 0 0 0.25 0"/>
<feBlend mode="normal" in2="shape" result="effect3_innerShadow_354_23"/>
</filter>
<filter id="filter5_dif_354_23" x="629.804" y="749.911" width="863.599" height="662.858" filterUnits="userSpaceOnUse" color-interpolation-filters="sRGB">
<feFlood flood-opacity="0" result="BackgroundImageFix"/>
<feColorMatrix in="SourceAlpha" type="matrix" values="0 0 0 0 0 0 0 0 0 0 0 0 0 0 0 0 0 0 127 0" result="hardAlpha"/>
<feOffset dy="4"/>
<feGaussianBlur stdDeviation="2"/>
<feComposite in2="hardAlpha" operator="out"/>
<feColorMatrix type="matrix" values="0 0 0 0 0 0 0 0 0 0 0 0 0 0 0 0 0 0 0.25 0"/>
<feBlend mode="normal" in2="BackgroundImageFix" result="effect1_dropShadow_354_23"/>
<feBlend mode="normal" in="SourceGraphic" in2="effect1_dropShadow_354_23" result="shape"/>
<feColorMatrix in="SourceAlpha" type="matrix" values="0 0 0 0 0 0 0 0 0 0 0 0 0 0 0 0 0 0 127 0" result="hardAlpha"/>
<feOffset dy="4"/>
<feGaussianBlur stdDeviation="2"/>
<feComposite in2="hardAlpha" operator="arithmetic" k2="-1" k3="1"/>
<feColorMatrix type="matrix" values="0 0 0 0 0 0 0 0 0 0 0 0 0 0 0 0 0 0 0.25 0"/>
<feBlend mode="normal" in2="shape" result="effect2_innerShadow_354_23"/>
<feGaussianBlur stdDeviation="16.5" result="effect3_foregroundBlur_354_23"/>
</filter>
</defs>
</svg>
