<svg width="782" height="132" viewBox="0 0 782 132" fill="none" xmlns="http://www.w3.org/2000/svg">
<path d="M17.5984 109.2C12.1984 109.2 8.0651 107.933 5.19844 105.4C2.33177 102.867 0.898438 99.6668 0.898438 95.8001C0.898438 92.0001 2.29844 87.8668 5.09844 83.4001C7.89844 78.9334 12.1651 74.6668 17.8984 70.6001C21.0318 68.3334 24.0984 66.6334 27.0984 65.5001C30.1651 64.3001 32.9318 63.6001 35.3984 63.4001H35.5984C36.1318 63.4001 36.5318 63.5001 36.7984 63.7001C37.0651 63.9001 36.8651 64.0668 36.1984 64.2001C33.6651 64.4668 30.9651 65.3334 28.0984 66.8001C25.2984 68.2001 22.5318 69.9001 19.7984 71.9001C14.6651 75.7668 10.8984 79.5334 8.49844 83.2001C6.09844 86.8668 4.89844 90.1668 4.89844 93.1001C4.89844 96.5668 6.39844 99.3334 9.39844 101.4C12.3984 103.533 16.6318 104.6 22.0984 104.6C29.0318 104.6 36.1651 103.333 43.4984 100.8C50.8318 98.3334 58.2651 94.9334 65.7984 90.6001C73.3318 86.2668 80.7651 81.4001 88.0984 76.0001C85.4984 75.5334 82.7651 75.0001 79.8984 74.4001C77.0318 73.7334 74.7984 72.9001 73.1984 71.9001C71.3318 70.8334 70.3984 69.6668 70.3984 68.4001C70.3984 67.8001 70.5651 67.3001 70.8984 66.9001C71.6984 65.9001 73.1318 65.4001 75.1984 65.4001C76.9318 65.4001 78.8984 65.7001 81.0984 66.3001C83.2984 66.9001 85.5318 67.6668 87.7984 68.6001C90.0651 69.5334 92.1318 70.5334 93.9984 71.6001C99.1984 67.4668 104.298 63.2001 109.298 58.8001C114.365 54.4001 119.232 49.9668 123.898 45.5001C124.698 43.9668 125.498 42.4668 126.298 41.0001C127.165 39.4668 128.032 38.0001 128.898 36.6001C129.632 35.4001 130.532 33.8668 131.598 32.0001C132.732 30.1334 134.032 28.2668 135.498 26.4001C136.965 24.4668 138.498 22.8334 140.098 21.5001C141.765 20.1001 143.432 19.3001 145.098 19.1001C146.165 18.9668 146.932 19.2001 147.398 19.8001C147.865 20.4001 148.098 21.0668 148.098 21.8001C148.098 23.5334 147.565 25.1668 146.498 26.7001C145.498 28.1668 144.332 29.5668 142.998 30.9001C139.065 34.7668 134.832 38.7001 130.298 42.7001C127.032 48.1668 124.032 53.8334 121.298 59.7001C118.632 65.5001 116.532 70.7001 114.998 75.3001C117.798 75.0334 120.365 74.6001 122.698 74.0001C125.098 73.4001 126.998 72.5334 128.398 71.4001C129.798 70.2668 130.432 68.8001 130.298 67.0001V66.9001C130.298 66.3001 130.532 66.0001 130.998 66.0001C131.732 66.0001 132.098 66.5668 132.098 67.7001C132.098 69.5001 131.232 71.0001 129.498 72.2001C127.765 73.4001 125.565 74.3668 122.898 75.1001C120.232 75.8334 117.432 76.4001 114.498 76.8001C114.032 78.4001 113.598 79.9334 113.198 81.4001C112.798 82.8668 112.598 84.2668 112.598 85.6001C112.598 86.4001 112.665 87.1334 112.798 87.8001C112.998 88.5334 113.132 89.0001 113.198 89.2001C113.465 90.1334 113.132 90.9668 112.198 91.7001C111.265 92.5001 110.332 92.9001 109.398 92.9001C108.465 92.9001 107.898 92.5001 107.698 91.7001C107.632 91.5668 107.598 91.4001 107.598 91.2001C107.598 91.0668 107.565 90.8668 107.498 90.6001C107.098 89.6668 106.432 88.5001 105.498 87.1001C104.632 85.7001 103.698 84.3001 102.698 82.9001C101.698 81.5001 100.765 80.3001 99.8984 79.3001C99.0318 78.3001 98.4318 77.7668 98.0984 77.7001C97.6318 77.5668 96.0651 77.2668 93.3984 76.8001C92.9318 76.7334 92.3984 76.6668 91.7984 76.6001C91.2651 76.4668 90.6984 76.3668 90.0984 76.3001C83.8984 80.8334 77.6318 85.1001 71.2984 89.1001C65.0318 93.1001 58.7984 96.6001 52.5984 99.6001C46.3984 102.6 40.3318 104.933 34.3984 106.6C28.5318 108.333 22.9318 109.2 17.5984 109.2ZM133.498 37.6001C136.698 34.6001 139.732 31.5668 142.598 28.5001C143.532 27.5668 144.332 26.5668 144.998 25.5001C145.665 24.4334 145.998 23.7001 145.998 23.3001C145.998 23.1001 145.932 23.0001 145.798 23.0001C145.465 23.0001 144.765 23.5334 143.698 24.6001C142.032 26.2668 140.332 28.2334 138.598 30.5001C136.932 32.7001 135.232 35.0668 133.498 37.6001ZM105.698 75.6001C106.432 75.6001 107.165 75.6001 107.898 75.6001C108.698 75.6001 109.498 75.5668 110.298 75.5001C111.432 72.1668 112.932 68.3668 114.798 64.1001C116.665 59.8334 118.698 55.5334 120.898 51.2001C116.898 54.7334 112.765 58.3001 108.498 61.9001C104.232 65.4334 99.8651 68.9334 95.3984 72.4001C96.3318 72.8668 97.1318 73.3668 97.7984 73.9001C98.4651 74.4334 99.0318 74.9001 99.4984 75.3001C100.898 75.5001 102.965 75.6001 105.698 75.6001ZM90.2984 74.3001L91.8984 73.1001C89.8318 72.0334 87.7318 71.1668 85.5984 70.5001C83.4651 69.8334 81.2651 69.4334 78.9984 69.3001C78.7318 69.2334 78.4651 69.2001 78.1984 69.2001C77.9318 69.2001 77.6984 69.2001 77.4984 69.2001C76.3651 69.2001 75.7984 69.3668 75.7984 69.7001C75.7984 69.9668 76.0651 70.3001 76.5984 70.7001C77.1984 71.0334 77.7651 71.3001 78.2984 71.5001C79.6318 71.9668 81.4318 72.4668 83.6984 73.0001C86.0318 73.5334 88.2318 73.9668 90.2984 74.3001ZM94.9984 74.9001L93.2984 73.9001L92.3984 74.7001C92.9318 74.7668 93.3984 74.8334 93.7984 74.9001C94.2651 74.9001 94.6651 74.9001 94.9984 74.9001ZM107.498 86.6001C107.565 86.2001 107.632 85.8001 107.698 85.4001C107.765 85.0001 107.832 84.5668 107.898 84.1001C108.165 82.9668 108.432 81.8001 108.698 80.6001C109.032 79.4001 109.398 78.2668 109.798 77.2001C108.132 77.2668 106.565 77.3334 105.098 77.4001C103.632 77.4668 102.398 77.4668 101.398 77.4001C102.332 78.4668 103.365 79.8334 104.498 81.5001C105.698 83.1668 106.698 84.8668 107.498 86.6001Z" fill="white"/>
<path d="M147.302 88.5001C146.036 88.5001 144.769 88.1668 143.502 87.5001C142.236 86.8334 141.602 85.7668 141.602 84.3001C141.602 84.1001 141.602 83.9001 141.602 83.7001C141.602 83.4334 141.636 83.2001 141.702 83.0001C141.236 82.8001 141.002 82.4334 141.002 81.9001C141.002 81.5001 141.136 81.1334 141.402 80.8001C141.736 80.4668 142.169 80.3334 142.702 80.4001C143.436 80.4668 144.436 80.4001 145.702 80.2001C146.969 80.0001 148.169 79.7668 149.302 79.5001C150.502 79.1668 151.302 78.9001 151.702 78.7001C152.236 78.3001 152.336 78.2668 152.002 78.6001C151.669 78.9334 151.036 79.4334 150.102 80.1001C149.169 80.7668 148.102 81.4001 146.902 82.0001C145.702 82.6001 144.536 82.9668 143.402 83.1001C143.469 83.3001 143.502 83.5334 143.502 83.8001C143.502 84.0001 143.502 84.2668 143.502 84.6001C143.502 85.5334 143.736 86.2001 144.202 86.6001C144.736 86.9334 145.436 87.1001 146.302 87.1001C147.702 87.1001 149.336 86.7334 151.202 86.0001C153.136 85.2001 155.102 84.1668 157.102 82.9001C159.169 81.6334 161.069 80.2334 162.802 78.7001C164.536 77.1001 165.936 75.5001 167.002 73.9001C168.136 72.2334 168.702 70.6668 168.702 69.2001C168.702 68.0001 168.269 67.2001 167.402 66.8001C166.536 66.4001 165.602 66.2001 164.602 66.2001C163.269 66.2001 161.802 66.4001 160.202 66.8001C158.602 67.2001 157.136 67.6668 155.802 68.2001C152.336 69.6001 148.969 71.7668 145.702 74.7001C142.436 77.5668 139.802 80.6001 137.802 83.8001L135.502 87.5001C135.302 87.9668 134.969 88.2001 134.502 88.2001C133.836 88.2001 133.302 87.8668 132.902 87.2001C132.569 86.5334 132.402 85.9001 132.402 85.3001C132.402 83.9668 132.802 82.2334 133.602 80.1001C134.469 77.9001 135.502 75.5668 136.702 73.1001C137.969 70.6334 139.202 68.3334 140.402 66.2001C141.669 64.0668 142.702 62.4001 143.502 61.2001C145.169 58.6668 147.202 55.8668 149.602 52.8001C152.069 49.6668 154.669 46.7001 157.402 43.9001C160.136 41.0334 162.702 38.7334 165.102 37.0001C165.436 36.7334 165.802 36.5001 166.202 36.3001C166.669 36.1001 167.136 36.0001 167.602 36.0001C168.536 36.0001 169.369 36.6334 170.102 37.9001C170.902 39.1668 171.302 40.2334 171.302 41.1001C171.302 41.3001 171.202 41.6334 171.002 42.1001C170.869 42.5001 170.669 42.7001 170.402 42.7001C170.336 42.7001 170.236 42.5668 170.102 42.3001C169.969 42.0334 169.869 41.8668 169.802 41.8001C169.402 41.2668 168.902 41.0001 168.302 41.0001C168.102 41.0001 167.936 41.0334 167.802 41.1001C164.802 42.4334 161.936 44.3001 159.202 46.7001C156.536 49.0334 154.002 51.7001 151.602 54.7001C149.202 57.7001 147.002 60.7668 145.002 63.9001C143.069 67.0334 141.369 70.0001 139.902 72.8001C139.236 74.0668 138.469 75.6001 137.602 77.4001C136.736 79.2001 136.136 80.7668 135.802 82.1001H136.002C138.002 79.3668 140.469 76.6668 143.402 74.0001C146.402 71.3334 149.636 69.1334 153.102 67.4001C156.569 65.6001 160.036 64.7001 163.502 64.7001C165.436 64.7001 167.302 65.2334 169.102 66.3001C170.969 67.3668 171.902 69.0334 171.902 71.3001C171.902 72.9668 171.302 74.6334 170.102 76.3001C168.902 77.9001 167.302 79.4334 165.302 80.9001C163.369 82.3668 161.302 83.6668 159.102 84.8001C156.902 85.9334 154.736 86.8334 152.602 87.5001C150.536 88.1668 148.769 88.5001 147.302 88.5001Z" fill="white"/>
<path d="M218.819 88.7001C216.085 88.7001 213.885 88.0668 212.219 86.8001C210.552 85.4668 209.352 83.7334 208.619 81.6001C207.885 79.4001 207.519 77.0334 207.519 74.5001C207.519 72.8334 207.652 71.1668 207.919 69.5001C208.185 67.7668 208.552 66.0668 209.019 64.4001C207.552 66.2001 205.819 68.1668 203.819 70.3001C201.819 72.4334 199.719 74.5334 197.519 76.6001C195.385 78.6668 193.419 80.5001 191.619 82.1001C189.819 83.6334 188.385 84.7001 187.319 85.3001C187.585 85.7668 187.719 86.2001 187.719 86.6001C187.719 87.5334 187.185 88.0001 186.119 88.0001C185.652 88.0001 185.152 87.8334 184.619 87.5001C184.085 87.1668 183.652 86.6334 183.319 85.9001C183.052 85.3668 182.919 84.7001 182.919 83.9001C182.919 81.9001 183.585 79.4668 184.919 76.6001C186.252 73.7334 187.885 70.7334 189.819 67.6001C191.752 64.4668 193.585 61.5334 195.319 58.8001C194.852 58.4668 194.552 58.1334 194.419 57.8001C194.285 57.4668 194.219 57.2334 194.219 57.1001C194.152 56.9001 194.185 56.7334 194.319 56.6001C194.452 56.4001 194.652 56.4001 194.919 56.6001C195.119 57.0668 195.485 57.4668 196.019 57.8001C196.419 57.2001 197.352 55.7334 198.819 53.4001C200.352 51.0001 202.285 48.0668 204.619 44.6001C207.019 41.0668 209.719 37.3001 212.719 33.3001C215.785 29.3001 219.052 25.3668 222.519 21.5001C226.052 17.5668 229.652 14.0001 233.319 10.8001C237.052 7.53343 240.785 4.93343 244.519 3.0001C248.252 1.06676 251.885 0.100098 255.419 0.100098C258.752 0.100098 261.185 0.93343 262.719 2.6001C264.319 4.26676 265.119 6.46676 265.119 9.20009C265.119 13.0001 264.285 16.7001 262.619 20.3001C260.952 23.8334 258.719 27.2334 255.919 30.5001C253.185 33.7001 250.119 36.7334 246.719 39.6001C243.319 42.4668 239.852 45.1001 236.319 47.5001C232.919 49.8334 229.252 51.9001 225.319 53.7001C221.385 55.4334 217.585 56.8668 213.919 58.0001C214.252 58.2668 214.552 58.6001 214.819 59.0001C215.152 59.4001 215.519 59.8668 215.919 60.4001C216.052 60.6668 216.119 60.9001 216.119 61.1001C216.119 61.5001 216.052 61.9334 215.919 62.4001C215.785 62.8001 215.652 63.1001 215.519 63.3001C214.119 65.4334 213.052 67.6668 212.319 70.0001C211.585 72.3334 211.219 74.5668 211.219 76.7001C211.219 79.5001 211.919 81.8668 213.319 83.8001C214.719 85.7334 216.919 86.7001 219.919 86.7001C221.452 86.7001 223.152 86.4334 225.019 85.9001C226.885 85.3668 228.952 84.4668 231.219 83.2001C234.152 81.8001 237.119 80.1001 240.119 78.1001C243.119 76.1001 245.852 74.1001 248.319 72.1001C249.052 71.5001 249.719 71.0001 250.319 70.6001C250.985 70.2001 251.652 69.6668 252.319 69.0001C252.452 68.9334 252.619 68.9001 252.819 68.9001C253.019 68.9001 253.119 69.0001 253.119 69.2001C253.119 69.4001 252.985 69.6668 252.719 70.0001C252.319 70.4668 251.419 71.3334 250.019 72.6001C248.619 73.8668 246.885 75.3001 244.819 76.9001C242.819 78.5001 240.619 80.0668 238.219 81.6001C235.885 83.1334 233.519 84.4668 231.119 85.6001C229.785 86.2668 227.952 86.9334 225.619 87.6001C223.352 88.3334 221.085 88.7001 218.819 88.7001ZM198.919 58.6001C200.319 58.6001 202.419 58.2668 205.219 57.6001C208.019 56.9334 211.152 56.0001 214.619 54.8001C218.085 53.5334 221.619 52.0668 225.219 50.4001C228.819 48.6668 232.119 46.7668 235.119 44.7001C237.052 43.3668 239.219 41.7334 241.619 39.8001C244.019 37.8001 246.452 35.6001 248.919 33.2001C251.385 30.7334 253.652 28.1668 255.719 25.5001C257.785 22.7668 259.452 20.0001 260.719 17.2001C261.985 14.3334 262.619 11.5334 262.619 8.80009C262.619 4.80009 260.219 2.80009 255.419 2.80009C253.685 2.80009 251.685 3.36676 249.419 4.50009C247.152 5.56676 244.785 7.0001 242.319 8.80009C239.852 10.6001 237.385 12.6001 234.919 14.8001C232.452 16.9334 230.152 19.1001 228.019 21.3001C225.952 23.5001 224.152 25.5001 222.619 27.3001C219.619 30.9668 216.519 34.8001 213.319 38.8001C210.185 42.8001 207.319 46.5334 204.719 50.0001C202.185 53.4668 200.252 56.3334 198.919 58.6001ZM186.919 83.2001C187.519 82.8668 188.552 82.0668 190.019 80.8001C191.552 79.5334 193.285 77.9668 195.219 76.1001C197.152 74.2334 199.085 72.3001 201.019 70.3001C203.019 68.3001 204.852 66.4334 206.519 64.7001C208.185 62.9001 209.485 61.4668 210.419 60.4001C210.552 60.0668 210.685 59.7668 210.819 59.5001C210.952 59.1668 211.085 58.9001 211.219 58.7001C207.352 59.7001 203.985 60.2001 201.119 60.2001C200.652 60.2001 200.185 60.2001 199.719 60.2001C199.252 60.1334 198.819 60.0668 198.419 60.0001H198.319C196.919 62.0668 195.485 64.2668 194.019 66.6001C192.619 68.8668 191.319 71.1001 190.119 73.3001C188.985 75.4334 188.119 77.3668 187.519 79.1001C186.919 80.8334 186.719 82.2001 186.919 83.2001Z" fill="white"/>
<path d="M265.242 53.2001C264.042 53.2001 263.442 52.5334 263.442 51.2001C263.442 50.6668 263.576 50.1334 263.842 49.6001C264.042 49.0668 264.709 48.6334 265.842 48.3001C266.976 47.9001 268.176 47.6334 269.442 47.5001C270.776 47.3001 271.809 47.2001 272.542 47.2001C273.142 47.2001 273.442 47.2334 273.442 47.3001C273.442 47.4334 273.109 47.6334 272.442 47.9001C271.776 48.1668 271.076 48.5001 270.342 48.9001C269.609 49.3001 269.109 49.7668 268.842 50.3001C268.509 51.1668 267.976 51.8668 267.242 52.4001C266.576 52.9334 265.909 53.2001 265.242 53.2001ZM248.242 87.8001C246.376 87.8001 244.742 87.4668 243.342 86.8001C241.942 86.0668 241.242 84.7668 241.242 82.9001C241.242 80.9001 241.742 78.9334 242.742 77.0001C243.742 75.0668 244.942 73.3001 246.342 71.7001C247.742 70.0334 249.109 68.6001 250.442 67.4001C251.842 66.1334 252.876 65.2001 253.542 64.6001C252.942 64.4668 253.042 63.8668 253.842 62.8001C254.642 61.7334 255.809 60.8668 257.342 60.2001C257.742 60.0668 258.109 60.0001 258.442 60.0001C259.176 60.0001 259.909 60.1668 260.642 60.5001C261.442 60.8334 261.842 61.3001 261.842 61.9001C261.842 62.2334 261.709 62.5668 261.442 62.9001C261.176 63.2334 260.909 63.5001 260.642 63.7001C260.109 64.1001 259.276 64.8001 258.142 65.8001C257.009 66.8001 255.776 67.9334 254.442 69.2001C253.109 70.4668 251.842 71.7334 250.642 73.0001C249.509 74.2001 248.609 75.2001 247.942 76.0001C245.476 79.1334 244.242 81.5668 244.242 83.3001C244.242 85.1668 245.742 86.1001 248.742 86.1001C251.209 86.1001 253.609 85.7334 255.942 85.0001C258.342 84.2001 260.576 83.2668 262.642 82.2001C265.909 80.5334 268.942 78.5334 271.742 76.2001C274.542 73.8001 277.442 71.4001 280.442 69.0001C280.576 68.9334 280.742 68.9001 280.942 68.9001C281.142 68.9001 281.242 69.0001 281.242 69.2001C281.242 69.4001 281.109 69.6668 280.842 70.0001C280.442 70.5334 279.609 71.4334 278.342 72.7001C277.076 73.9001 275.476 75.2668 273.542 76.8001C271.676 78.3334 269.576 79.8668 267.242 81.4001C264.976 82.8668 262.642 84.1334 260.242 85.2001C258.976 85.7334 257.176 86.3001 254.842 86.9001C252.576 87.5001 250.376 87.8001 248.242 87.8001Z" fill="white"/>
<path d="M286.697 59.8001C285.497 59.8001 284.897 59.1334 284.897 57.8001C284.897 57.2668 285.03 56.7334 285.297 56.2001C285.564 55.6668 286.23 55.2334 287.297 54.9001C288.43 54.5001 289.63 54.2334 290.897 54.1001C292.23 53.9001 293.264 53.8001 293.997 53.8001C294.597 53.8001 294.897 53.8334 294.897 53.9001C294.897 54.0334 294.564 54.2334 293.897 54.5001C293.23 54.7668 292.53 55.1001 291.797 55.5001C291.064 55.9001 290.564 56.3668 290.297 56.9001C289.964 57.7668 289.43 58.4668 288.697 59.0001C288.03 59.5334 287.364 59.8001 286.697 59.8001ZM225.497 131.9C224.83 131.9 224.164 131.867 223.497 131.8C222.764 131.8 222.03 131.767 221.297 131.7C217.697 131.233 214.33 130.167 211.197 128.5C208.064 126.833 205.597 124.4 203.797 121.2C203.33 120.467 203.097 119.867 203.097 119.4C203.097 119.133 203.197 119 203.397 119C203.93 119 204.497 119.533 205.097 120.6C206.964 124 209.464 126.467 212.597 128C215.664 129.533 219.197 130.3 223.197 130.3C228.13 130.3 232.664 129.333 236.797 127.4C240.93 125.467 244.73 122.867 248.197 119.6C251.664 116.4 254.83 112.8 257.697 108.8C260.497 104.8 263.03 100.667 265.297 96.4001C267.63 92.2001 269.73 88.1668 271.597 84.3001C272.73 82.0334 273.997 79.5001 275.397 76.7001C276.864 73.9001 278.23 71.4001 279.497 69.2001C280.164 68.0668 280.997 67.3334 281.997 67.0001C282.997 66.6001 283.93 66.4001 284.797 66.4001C286.197 66.4001 287.13 66.4668 287.597 66.6001C288.13 66.6668 288.397 66.7668 288.397 66.9001C288.397 67.0334 288.23 67.1668 287.897 67.3001C287.564 67.4334 287.33 67.5668 287.197 67.7001C285.53 68.7001 283.664 70.6334 281.597 73.5001C279.597 76.3668 277.53 79.7334 275.397 83.6001C273.597 86.8668 271.797 90.4334 269.997 94.3001C268.264 98.2334 266.43 102.067 264.497 105.8C262.63 109.533 260.597 112.833 258.397 115.7C255.93 119.033 252.93 121.9 249.397 124.3C245.797 126.767 241.964 128.633 237.897 129.9C233.83 131.233 229.697 131.9 225.497 131.9Z" fill="white"/>
<path d="M311.055 88.3001C309.522 88.3001 308.055 88.1334 306.655 87.8001C305.322 87.4668 304.089 86.9668 302.955 86.3001C301.489 85.3668 300.389 84.3001 299.655 83.1001C298.989 81.8334 298.655 80.5001 298.655 79.1001C298.655 76.7668 299.455 74.3334 301.055 71.8001C302.655 69.2668 304.755 66.8668 307.355 64.6001C310.022 62.2668 312.822 60.3334 315.755 58.8001C317.489 57.8668 319.222 57.2001 320.955 56.8001C322.689 56.4001 324.222 56.2001 325.555 56.2001C327.755 56.2001 329.189 56.6334 329.855 57.5001C330.589 58.3001 330.955 59.2334 330.955 60.3001C330.955 61.5668 330.555 62.7668 329.755 63.9001C329.022 65.0334 327.922 66.1668 326.455 67.3001C323.855 69.3668 320.322 71.2334 315.855 72.9001C311.455 74.5668 306.889 75.7334 302.155 76.4001C301.822 77.0668 301.522 77.7334 301.255 78.4001C301.055 79.0668 300.955 79.7334 300.955 80.4001C300.955 81.8668 301.422 83.0668 302.355 84.0001C303.355 84.8668 304.589 85.5001 306.055 85.9001C307.589 86.2334 309.155 86.4001 310.755 86.4001C311.555 86.4001 312.355 86.3668 313.155 86.3001C313.955 86.2334 314.689 86.1334 315.355 86.0001C318.822 85.2668 322.322 84.0001 325.855 82.2001C329.455 80.4001 332.922 78.3334 336.255 76.0001C339.589 73.6668 342.589 71.3334 345.255 69.0001C345.389 68.9334 345.555 68.9001 345.755 68.9001C346.022 68.9001 346.155 68.9668 346.155 69.1001C346.155 69.3001 346.022 69.5668 345.755 69.9001C345.289 70.7001 344.322 71.7334 342.855 73.0001C341.455 74.2668 339.822 75.5668 337.955 76.9001C336.155 78.2334 334.389 79.5001 332.655 80.7001C330.922 81.8334 329.489 82.7334 328.355 83.4001C325.889 84.8001 323.122 85.9668 320.055 86.9001C316.989 87.8334 313.989 88.3001 311.055 88.3001ZM303.055 74.7001C304.589 74.3668 306.422 73.9334 308.555 73.4001C310.689 72.8001 312.889 72.1001 315.155 71.3001C317.489 70.4334 319.622 69.5001 321.555 68.5001C323.489 67.4334 324.989 66.3001 326.055 65.1001C327.122 63.9668 327.655 62.8001 327.655 61.6001C327.655 61.0668 327.455 60.6334 327.055 60.3001C326.655 59.9001 325.855 59.7001 324.655 59.7001C323.255 59.7001 321.589 60.1334 319.655 61.0001C317.722 61.8668 315.689 63.0334 313.555 64.5001C311.489 65.9668 309.522 67.6001 307.655 69.4001C305.789 71.1334 304.255 72.9001 303.055 74.7001Z" fill="white"/>
<path d="M353.341 88.3001C351.807 88.3001 350.341 88.1334 348.941 87.8001C347.607 87.4668 346.374 86.9668 345.241 86.3001C343.774 85.3668 342.674 84.3001 341.941 83.1001C341.274 81.8334 340.941 80.5001 340.941 79.1001C340.941 76.7668 341.741 74.3334 343.341 71.8001C344.941 69.2668 347.041 66.8668 349.641 64.6001C352.307 62.2668 355.107 60.3334 358.041 58.8001C359.774 57.8668 361.507 57.2001 363.241 56.8001C364.974 56.4001 366.507 56.2001 367.841 56.2001C370.041 56.2001 371.474 56.6334 372.141 57.5001C372.874 58.3001 373.241 59.2334 373.241 60.3001C373.241 61.5668 372.841 62.7668 372.041 63.9001C371.307 65.0334 370.207 66.1668 368.741 67.3001C366.141 69.3668 362.607 71.2334 358.141 72.9001C353.741 74.5668 349.174 75.7334 344.441 76.4001C344.107 77.0668 343.807 77.7334 343.541 78.4001C343.341 79.0668 343.241 79.7334 343.241 80.4001C343.241 81.8668 343.707 83.0668 344.641 84.0001C345.641 84.8668 346.874 85.5001 348.341 85.9001C349.874 86.2334 351.441 86.4001 353.041 86.4001C353.841 86.4001 354.641 86.3668 355.441 86.3001C356.241 86.2334 356.974 86.1334 357.641 86.0001C361.107 85.2668 364.607 84.0001 368.141 82.2001C371.741 80.4001 375.207 78.3334 378.541 76.0001C381.874 73.6668 384.874 71.3334 387.541 69.0001C387.674 68.9334 387.841 68.9001 388.041 68.9001C388.307 68.9001 388.441 68.9668 388.441 69.1001C388.441 69.3001 388.307 69.5668 388.041 69.9001C387.574 70.7001 386.607 71.7334 385.141 73.0001C383.741 74.2668 382.107 75.5668 380.241 76.9001C378.441 78.2334 376.674 79.5001 374.941 80.7001C373.207 81.8334 371.774 82.7334 370.641 83.4001C368.174 84.8001 365.407 85.9668 362.341 86.9001C359.274 87.8334 356.274 88.3001 353.341 88.3001ZM345.341 74.7001C346.874 74.3668 348.707 73.9334 350.841 73.4001C352.974 72.8001 355.174 72.1001 357.441 71.3001C359.774 70.4334 361.907 69.5001 363.841 68.5001C365.774 67.4334 367.274 66.3001 368.341 65.1001C369.407 63.9668 369.941 62.8001 369.941 61.6001C369.941 61.0668 369.741 60.6334 369.341 60.3001C368.941 59.9001 368.141 59.7001 366.941 59.7001C365.541 59.7001 363.874 60.1334 361.941 61.0001C360.007 61.8668 357.974 63.0334 355.841 64.5001C353.774 65.9668 351.807 67.6001 349.941 69.4001C348.074 71.1334 346.541 72.9001 345.341 74.7001Z" fill="white"/>
<path d="M388.826 89.3001C386.559 89.3001 384.559 88.8668 382.826 88.0001C381.159 87.1334 380.326 85.4668 380.326 83.0001C380.326 81.2001 381.026 79.1001 382.426 76.7001C383.826 74.3001 385.692 71.7668 388.026 69.1001C390.359 66.4334 392.859 63.7668 395.526 61.1001C398.259 58.4334 400.926 55.9001 403.526 53.5001C402.726 53.3668 401.959 53.2001 401.226 53.0001C400.492 52.8001 399.792 52.6334 399.126 52.5001C396.059 51.7668 392.426 50.9001 388.226 49.9001C384.092 48.8334 379.626 47.8001 374.826 46.8001C370.026 45.7334 365.126 44.8668 360.126 44.2001C355.059 43.4668 350.126 43.1001 345.326 43.1001C339.059 43.1001 333.326 43.9334 328.126 45.6001C322.926 47.2001 318.959 50.1334 316.226 54.4001C315.892 55.0001 315.526 55.3001 315.126 55.3001C314.859 55.3001 314.726 55.0334 314.726 54.5001C314.726 53.9001 314.926 53.3001 315.326 52.7001C317.459 49.5668 320.126 47.1001 323.326 45.3001C326.526 43.5001 330.092 42.2334 334.026 41.5001C337.959 40.7001 342.059 40.3001 346.326 40.3001C350.659 40.3001 355.059 40.6001 359.526 41.2001C363.926 41.8001 368.159 42.5334 372.226 43.4001C376.359 44.2668 380.126 45.1668 383.526 46.1001C386.992 46.9668 389.926 47.7001 392.326 48.3001C393.926 48.7668 395.892 49.2668 398.226 49.8001C400.626 50.3334 403.159 50.8668 405.826 51.4001L412.326 45.7001C412.126 45.5001 412.026 45.2334 412.026 44.9001C412.026 44.2334 412.426 43.5001 413.226 42.7001C414.026 41.9001 415.059 41.2334 416.326 40.7001C416.792 40.5001 417.459 40.5001 418.326 40.7001C419.259 40.9001 420.126 41.2001 420.926 41.6001C421.726 42.0001 422.126 42.4334 422.126 42.9001C422.126 43.3001 421.659 43.8334 420.726 44.5001C419.859 45.1001 419.259 45.5001 418.926 45.7001C418.126 46.1668 416.992 46.9668 415.526 48.1001C414.059 49.2334 412.359 50.5668 410.426 52.1001C412.892 52.5001 415.392 52.8334 417.926 53.1001C420.526 53.3001 422.992 53.4001 425.326 53.4001C428.859 53.4001 432.059 53.0668 434.926 52.4001C437.792 51.6668 439.992 50.4668 441.526 48.8001C443.126 47.0668 443.726 44.7001 443.326 41.7001V41.6001C443.326 41.2668 443.492 41.1001 443.826 41.1001C444.159 41.1001 444.392 41.2668 444.526 41.6001C444.592 42.0001 444.626 42.4001 444.626 42.8001C444.692 43.2001 444.726 43.5668 444.726 43.9001C444.726 47.0334 443.826 49.5334 442.026 51.4001C440.226 53.2001 437.859 54.4668 434.926 55.2001C431.992 55.9334 428.759 56.3001 425.226 56.3001C422.359 56.3001 419.392 56.1001 416.326 55.7001C413.326 55.3001 410.459 54.8668 407.726 54.4001C405.059 56.6668 402.326 59.1334 399.526 61.8001C396.726 64.4001 394.126 67.0334 391.726 69.7001C389.326 72.3001 387.359 74.7334 385.826 77.0001C384.359 79.2668 383.626 81.1334 383.626 82.6001C383.626 84.0668 384.259 85.1668 385.526 85.9001C386.792 86.6334 388.459 87.0001 390.526 87.0001C393.792 87.0001 397.526 86.2334 401.726 84.7001C402.192 84.5668 402.626 84.4001 403.026 84.2001C403.492 84.0001 403.959 83.8001 404.426 83.6001C407.559 82.2001 410.626 80.4668 413.626 78.4001C416.692 76.2668 419.459 74.1668 421.926 72.1001C422.659 71.5001 423.326 71.0001 423.926 70.6001C424.526 70.2001 425.159 69.6668 425.826 69.0001C425.959 68.9334 426.092 68.9001 426.226 68.9001C426.426 68.9001 426.526 69.0001 426.526 69.2001C426.526 69.4001 426.426 69.6668 426.226 70.0001C425.826 70.5334 424.859 71.5334 423.326 73.0001C421.792 74.4001 419.892 76.0001 417.626 77.8001C415.359 79.5334 412.892 81.2334 410.226 82.9001C407.626 84.5001 404.992 85.7668 402.326 86.7001C400.992 87.1668 399.026 87.7001 396.426 88.3001C393.892 88.9668 391.359 89.3001 388.826 89.3001Z" fill="white"/>
<path d="M456.026 88.7001C453.292 88.7001 451.092 88.0668 449.426 86.8001C447.759 85.4668 446.559 83.7334 445.826 81.6001C445.092 79.4001 444.726 77.0334 444.726 74.5001C444.726 72.8334 444.859 71.1668 445.126 69.5001C445.392 67.7668 445.759 66.0668 446.226 64.4001C444.759 66.2001 443.026 68.1668 441.026 70.3001C439.026 72.4334 436.926 74.5334 434.726 76.6001C432.592 78.6668 430.626 80.5001 428.826 82.1001C427.026 83.6334 425.592 84.7001 424.526 85.3001C424.792 85.7668 424.926 86.2001 424.926 86.6001C424.926 87.5334 424.392 88.0001 423.326 88.0001C422.859 88.0001 422.359 87.8334 421.826 87.5001C421.292 87.1668 420.859 86.6334 420.526 85.9001C420.259 85.3668 420.126 84.7001 420.126 83.9001C420.126 81.9001 420.792 79.4668 422.126 76.6001C423.459 73.7334 425.092 70.7334 427.026 67.6001C428.959 64.4668 430.792 61.5334 432.526 58.8001C432.059 58.4668 431.759 58.1334 431.626 57.8001C431.492 57.4668 431.426 57.2334 431.426 57.1001C431.359 56.9001 431.392 56.7334 431.526 56.6001C431.659 56.4001 431.859 56.4001 432.126 56.6001C432.326 57.0668 432.692 57.4668 433.226 57.8001C433.626 57.2001 434.559 55.7334 436.026 53.4001C437.559 51.0001 439.492 48.0668 441.826 44.6001C444.226 41.0668 446.926 37.3001 449.926 33.3001C452.992 29.3001 456.259 25.3668 459.726 21.5001C463.259 17.5668 466.859 14.0001 470.526 10.8001C474.259 7.53343 477.992 4.93343 481.726 3.0001C485.459 1.06676 489.092 0.100098 492.626 0.100098C495.959 0.100098 498.392 0.93343 499.926 2.6001C501.526 4.26676 502.326 6.46676 502.326 9.20009C502.326 13.0001 501.492 16.7001 499.826 20.3001C498.159 23.8334 495.926 27.2334 493.126 30.5001C490.392 33.7001 487.326 36.7334 483.926 39.6001C480.526 42.4668 477.059 45.1001 473.526 47.5001C470.126 49.8334 466.459 51.9001 462.526 53.7001C458.592 55.4334 454.792 56.8668 451.126 58.0001C451.459 58.2668 451.759 58.6001 452.026 59.0001C452.359 59.4001 452.726 59.8668 453.126 60.4001C453.259 60.6668 453.326 60.9001 453.326 61.1001C453.326 61.5001 453.259 61.9334 453.126 62.4001C452.992 62.8001 452.859 63.1001 452.726 63.3001C451.326 65.4334 450.259 67.6668 449.526 70.0001C448.792 72.3334 448.426 74.5668 448.426 76.7001C448.426 79.5001 449.126 81.8668 450.526 83.8001C451.926 85.7334 454.126 86.7001 457.126 86.7001C458.659 86.7001 460.359 86.4334 462.226 85.9001C464.092 85.3668 466.159 84.4668 468.426 83.2001C471.359 81.8001 474.326 80.1001 477.326 78.1001C480.326 76.1001 483.059 74.1001 485.526 72.1001C486.259 71.5001 486.926 71.0001 487.526 70.6001C488.192 70.2001 488.859 69.6668 489.526 69.0001C489.659 68.9334 489.826 68.9001 490.026 68.9001C490.226 68.9001 490.326 69.0001 490.326 69.2001C490.326 69.4001 490.192 69.6668 489.926 70.0001C489.526 70.4668 488.626 71.3334 487.226 72.6001C485.826 73.8668 484.092 75.3001 482.026 76.9001C480.026 78.5001 477.826 80.0668 475.426 81.6001C473.092 83.1334 470.726 84.4668 468.326 85.6001C466.992 86.2668 465.159 86.9334 462.826 87.6001C460.559 88.3334 458.292 88.7001 456.026 88.7001ZM436.126 58.6001C437.526 58.6001 439.626 58.2668 442.426 57.6001C445.226 56.9334 448.359 56.0001 451.826 54.8001C455.292 53.5334 458.826 52.0668 462.426 50.4001C466.026 48.6668 469.326 46.7668 472.326 44.7001C474.259 43.3668 476.426 41.7334 478.826 39.8001C481.226 37.8001 483.659 35.6001 486.126 33.2001C488.592 30.7334 490.859 28.1668 492.926 25.5001C494.992 22.7668 496.659 20.0001 497.926 17.2001C499.192 14.3334 499.826 11.5334 499.826 8.80009C499.826 4.80009 497.426 2.80009 492.626 2.80009C490.892 2.80009 488.892 3.36676 486.626 4.50009C484.359 5.56676 481.992 7.0001 479.526 8.80009C477.059 10.6001 474.592 12.6001 472.126 14.8001C469.659 16.9334 467.359 19.1001 465.226 21.3001C463.159 23.5001 461.359 25.5001 459.826 27.3001C456.826 30.9668 453.726 34.8001 450.526 38.8001C447.392 42.8001 444.526 46.5334 441.926 50.0001C439.392 53.4668 437.459 56.3334 436.126 58.6001ZM424.126 83.2001C424.726 82.8668 425.759 82.0668 427.226 80.8001C428.759 79.5334 430.492 77.9668 432.426 76.1001C434.359 74.2334 436.292 72.3001 438.226 70.3001C440.226 68.3001 442.059 66.4334 443.726 64.7001C445.392 62.9001 446.692 61.4668 447.626 60.4001C447.759 60.0668 447.892 59.7668 448.026 59.5001C448.159 59.1668 448.292 58.9001 448.426 58.7001C444.559 59.7001 441.192 60.2001 438.326 60.2001C437.859 60.2001 437.392 60.2001 436.926 60.2001C436.459 60.1334 436.026 60.0668 435.626 60.0001H435.526C434.126 62.0668 432.692 64.2668 431.226 66.6001C429.826 68.8668 428.526 71.1001 427.326 73.3001C426.192 75.4334 425.326 77.3668 424.726 79.1001C424.126 80.8334 423.926 82.2001 424.126 83.2001Z" fill="white"/>
<path d="M537.51 89.8001C535.443 89.8001 533.677 89.0668 532.21 87.6001C530.743 86.2001 530.01 83.9334 530.01 80.8001C530.01 79.0001 530.277 76.6668 530.81 73.8001C531.41 70.8668 532.143 67.8668 533.01 64.8001C533.943 61.6668 534.91 58.9001 535.91 56.5001L538.91 48.4001L540.71 45.0001C537.31 47.8668 533.677 50.5001 529.81 52.9001C526.01 55.2334 522.31 57.1001 518.71 58.5001C515.11 59.9001 511.943 60.6001 509.21 60.6001C506.41 60.6001 504.41 60.1001 503.21 59.1001C502.077 58.1001 501.51 56.8668 501.51 55.4001C501.51 53.7334 502.077 51.9001 503.21 49.9001C504.41 47.9001 505.943 45.9668 507.81 44.1001C509.677 42.2334 511.61 40.7334 513.61 39.6001C514.144 39.2668 514.71 39.0668 515.31 39.0001C515.977 38.9334 516.144 39.0001 515.81 39.2001C514.477 40.2668 513.077 41.6001 511.61 43.2001C510.144 44.7334 508.877 46.4001 507.81 48.2001C506.743 50.0001 506.077 51.8334 505.81 53.7001C505.743 55.1668 506.01 56.3334 506.61 57.2001C507.21 58.0001 508.41 58.3668 510.21 58.3001C513.81 58.1001 517.643 56.9668 521.71 54.9001C525.777 52.8334 529.81 50.2334 533.81 47.1001C537.81 43.9668 541.443 40.7334 544.71 37.4001L545.21 36.9001C546.343 34.9001 547.477 33.0001 548.61 31.2001C549.81 29.3334 550.91 27.8334 551.91 26.7001C552.91 25.5668 553.71 25.0001 554.31 25.0001C554.777 25.0001 555.377 25.1001 556.11 25.3001C556.844 25.5001 557.477 25.8001 558.01 26.2001C558.543 26.5334 558.677 26.9001 558.41 27.3001C557.343 28.7668 555.877 30.8668 554.01 33.6001C552.21 36.3334 550.244 39.4668 548.11 43.0001C546.044 46.5334 544.01 50.3001 542.01 54.3001C540.077 58.2334 538.444 62.2001 537.11 66.2001C536.777 67.1334 536.377 68.5668 535.91 70.5001C535.443 72.3668 535.043 74.4001 534.71 76.6001C534.377 78.7334 534.21 80.6668 534.21 82.4001C534.21 83.8668 534.443 85.0668 534.91 86.0001C535.377 86.9334 536.177 87.4001 537.31 87.4001C538.044 87.4001 538.877 87.2001 539.81 86.8001C540.744 86.4001 541.844 85.7668 543.11 84.9001C545.044 83.6334 547.543 81.5334 550.61 78.6001C553.744 75.6668 557.01 72.4668 560.41 69.0001C565.61 63.8001 570.91 58.2001 576.31 52.2001C581.71 46.1334 587.144 40.5334 592.61 35.4001C597.277 31.0001 602.01 27.1668 606.81 23.9001C611.677 20.6334 616.844 18.3001 622.31 16.9001C623.377 16.7001 624.41 16.5334 625.41 16.4001C626.477 16.2668 627.544 16.2001 628.61 16.2001C629.81 16.2001 631.01 16.3001 632.21 16.5001C634.61 17.0334 636.41 18.1668 637.61 19.9001C638.81 21.5668 639.41 23.5668 639.41 25.9001C639.41 29.0334 638.343 32.4334 636.21 36.1001C634.077 39.7668 630.91 43.0334 626.71 45.9001C626.377 46.1668 626.077 46.3001 625.81 46.3001C625.61 46.3001 625.51 46.2001 625.51 46.0001C625.51 45.8668 625.643 45.6334 625.91 45.3001C626.177 44.9001 626.644 44.5001 627.31 44.1001C629.177 42.8334 630.844 41.2334 632.31 39.3001C633.777 37.3668 634.944 35.3334 635.81 33.2001C636.677 31.0668 637.11 29.1001 637.11 27.3001C637.11 25.7668 636.777 24.4334 636.11 23.3001C635.444 22.1668 634.344 21.3668 632.81 20.9001C632.01 20.7668 631.21 20.6668 630.41 20.6001C629.677 20.5334 628.943 20.5001 628.21 20.5001C626.543 20.5001 624.877 20.7334 623.21 21.2001C618.743 22.2668 614.077 24.1668 609.21 26.9001C604.41 29.6334 599.777 32.8668 595.31 36.6001C591.244 40.0001 587.31 43.6668 583.51 47.6001C579.71 51.5334 576.043 55.5001 572.51 59.5001C568.977 63.5001 565.577 67.3334 562.31 71.0001C559.244 74.4668 556.143 77.7001 553.01 80.7001C549.943 83.6334 546.943 86.0001 544.01 87.8001C541.943 89.1334 539.777 89.8001 537.51 89.8001Z" fill="white"/>
<path d="M748.226 108.1C745.292 108.1 743.126 107.067 741.726 105C740.392 103 739.726 100.2 739.726 96.6001C739.726 92.4668 740.559 87.5668 742.226 81.9001C743.959 76.2334 746.359 70.1334 749.426 63.6001C752.559 57.0001 756.259 50.2334 760.526 43.3001C764.859 36.3668 769.592 29.5334 774.726 22.8001C773.659 23.0668 772.226 23.5668 770.426 24.3001C768.692 24.9668 767.092 25.7334 765.626 26.6001C762.292 28.5334 758.592 31.0334 754.526 34.1001C750.526 37.1668 746.392 40.5334 742.126 44.2001C737.926 47.8668 733.792 51.6334 729.726 55.5001C725.659 59.3668 721.859 63.1334 718.326 66.8001C714.859 70.4668 711.859 73.8001 709.326 76.8001C706.792 79.8001 704.926 82.2668 703.726 84.2001C703.259 85.1334 702.859 86.0668 702.526 87.0001C702.192 87.8668 701.892 88.6668 701.626 89.4001C701.492 89.8001 701.159 90.1668 700.626 90.5001C700.159 90.8334 699.659 91.0001 699.126 91.0001C698.659 91.0001 698.259 90.8001 697.926 90.4001C697.592 90.0001 697.426 89.3334 697.426 88.4001C697.426 87.8001 697.492 87.1001 697.626 86.3001C697.826 85.4334 698.126 84.4334 698.526 83.3001C698.792 82.5001 699.626 80.7334 701.026 78.0001C702.426 75.2668 704.192 71.9001 706.326 67.9001C708.459 63.8334 710.759 59.4334 713.226 54.7001C715.759 49.9001 718.226 45.0668 720.626 40.2001C722.292 36.8668 723.759 33.4668 725.026 30.0001C726.359 26.4668 727.026 23.2668 727.026 20.4001C727.026 17.4668 726.126 15.1001 724.326 13.3001C722.592 11.4334 719.492 10.5001 715.026 10.5001C708.826 10.5001 702.359 11.1668 695.626 12.5001C688.892 13.7668 682.159 15.5668 675.426 17.9001C668.759 20.1668 662.259 22.8334 655.926 25.9001C649.659 28.9001 643.826 32.1668 638.426 35.7001C633.026 39.2334 628.292 42.8668 624.226 46.6001C620.159 50.3334 616.992 54.0668 614.726 57.8001C612.459 61.4668 611.326 65.0001 611.326 68.4001C611.326 71.4668 612.092 73.5334 613.626 74.6001C615.159 75.6001 616.959 76.1001 619.026 76.1001C620.492 76.1001 621.992 75.9334 623.526 75.6001C625.126 75.2668 626.559 74.9668 627.826 74.7001C627.959 74.6334 628.159 74.6001 628.426 74.6001C629.226 74.6001 629.626 74.8668 629.626 75.4001C629.626 75.8001 629.326 76.1001 628.726 76.3001C627.192 76.7668 625.526 77.1668 623.726 77.5001C621.992 77.8334 620.259 78.0001 618.526 78.0001C616.192 78.0001 613.992 77.6668 611.926 77.0001C609.859 76.3334 608.192 75.2334 606.926 73.7001C605.726 72.1668 605.126 70.1001 605.126 67.5001C605.126 64.1001 606.359 60.5334 608.826 56.8001C611.292 53.0001 614.692 49.2001 619.026 45.4001C623.426 41.6001 628.526 37.9001 634.326 34.3001C640.126 30.7001 646.359 27.3668 653.026 24.3001C659.759 21.1668 666.692 18.4334 673.826 16.1001C681.026 13.7668 688.159 11.9668 695.226 10.7001C702.292 9.36676 709.059 8.70009 715.526 8.70009C721.659 8.70009 725.959 9.76676 728.426 11.9001C730.959 13.9668 732.226 16.7668 732.226 20.3001C732.226 23.1001 731.592 26.2334 730.326 29.7001C729.126 33.1001 727.559 36.6668 725.626 40.4001C724.959 41.6668 723.892 43.6668 722.426 46.4001C721.026 49.1334 719.392 52.3001 717.526 55.9001C715.726 59.4334 713.859 63.1334 711.926 67.0001C709.992 70.8668 708.192 74.5668 706.526 78.1001C708.859 75.0334 711.692 71.6001 715.026 67.8001C718.359 64.0001 722.026 60.0668 726.026 56.0001C730.092 51.9334 734.292 47.9334 738.626 44.0001C743.026 40.0001 747.459 36.2668 751.926 32.8001C756.392 29.2668 760.726 26.1668 764.926 23.5001C766.926 22.2334 768.892 21.0668 770.826 20.0001C772.759 18.9334 774.626 18.0668 776.426 17.4001C777.092 17.1334 778.059 17.3334 779.326 18.0001C780.592 18.6668 781.392 19.3668 781.726 20.1001C781.859 20.7001 781.659 21.7334 781.126 23.2001C780.659 24.6001 779.726 26.0334 778.326 27.5001C774.659 31.3001 771.126 35.6334 767.726 40.5001C764.392 45.3001 761.292 50.3334 758.426 55.6001C755.626 60.8668 753.159 66.1001 751.026 71.3001C748.959 76.4334 747.326 81.2668 746.126 85.8001C744.992 90.2668 744.426 94.1334 744.426 97.4001C744.426 99.8668 744.826 101.8 745.626 103.2C746.492 104.667 747.826 105.4 749.626 105.4C751.226 105.4 753.159 104.9 755.426 103.9C757.692 102.967 759.992 101.8 762.326 100.4C764.659 99.0001 766.659 97.6668 768.326 96.4001C768.392 96.3334 768.426 96.3001 768.426 96.3001C768.492 96.3001 768.526 96.3001 768.526 96.3001C768.726 96.3001 768.826 96.4668 768.826 96.8001C768.826 97.2001 768.692 97.5001 768.426 97.7001C768.092 98.1001 767.359 98.7668 766.226 99.7001C765.159 100.7 763.792 101.767 762.126 102.9C760.459 104.033 758.626 105.067 756.626 106C754.626 106.933 752.559 107.567 750.426 107.9C750.026 107.967 749.626 108 749.226 108C748.892 108.067 748.559 108.1 748.226 108.1Z" fill="white"/>
</svg>
